<svg width="33" height="33" viewBox="0 0 33 33" fill="none" xmlns="http://www.w3.org/2000/svg">
<path d="M31.3242 18.3047C32.2482 18.3047 33 17.5529 33 16.6289V1.67578C33 0.751781 32.2482 0 31.3242 0H9.15234C8.22834 0 7.47656 0.751781 7.47656 1.67578V6.57422H3.80686C3.45088 6.57422 3.16233 6.86278 3.16233 7.21875C3.16233 7.57472 3.45088 7.86328 3.80686 7.86328H7.47656V9.66797H0.644531C0.288557 9.66797 0 9.95653 0 10.3125C0 10.6685 0.288557 10.957 0.644531 10.957H7.47656V14.6953H1.67578C0.751781 14.6953 0 15.4471 0 16.3711V31.3242C0 32.2482 0.751781 33 1.67578 33H23.8477C24.7717 33 25.5234 32.2482 25.5234 31.3242V26.4258H32.3555C32.7114 26.4258 33 26.1372 33 25.7812C33 25.4253 32.7114 25.1367 32.3555 25.1367H25.5234V23.332H29.1931C29.5491 23.332 29.8377 23.0435 29.8377 22.6875C29.8377 22.3315 29.5491 22.043 29.1931 22.043H25.5234V18.3047H31.3242ZM31.3258 1.28913C31.5383 1.29003 31.7109 1.46309 31.7109 1.67578V16.3887L23.9686 8.64639L31.3258 1.28913ZM29.5028 1.28906L21.2053 9.58656C20.947 9.84489 20.6036 9.98714 20.2383 9.98714C19.873 9.98714 19.5295 9.84483 19.2712 9.58656L10.9737 1.28906H29.5028ZM8.76562 1.67578C8.76562 1.46309 8.93823 1.29003 9.15073 1.28913L16.4847 8.62318L8.76562 16.3423V1.67578ZM7.47656 15.9844V16.6289C7.47656 17.5529 8.22834 18.3047 9.15234 18.3047H19.706L13.7288 24.2819C13.1956 24.8152 12.3279 24.8152 11.7947 24.2819L3.4971 15.9844H7.47656ZM1.28906 31.0377V16.3711C1.28906 16.1584 1.46167 15.9853 1.67411 15.9844L9.00816 23.3185L1.28906 31.0377ZM2.43878 31.7109L9.91972 24.2301L10.8831 25.1934C11.919 26.2293 13.6044 26.2293 14.6403 25.1934L15.5805 24.2533L23.0382 31.7109H2.43878ZM24.2344 31.084L16.4921 23.3417L21.5291 18.3047H24.2344V31.084ZM9.91534 17.0156L17.3963 9.53474L18.3597 10.4981C19.3956 11.534 21.081 11.534 22.1169 10.4981L23.0571 9.55795L30.5148 17.0156H9.91534Z" fill="#CDCDCD"/>
<path d="M32.017 22.2318C31.8971 22.1119 31.7308 22.043 31.5613 22.043C31.3918 22.043 31.2255 22.1119 31.1056 22.2318C30.9857 22.3517 30.9167 22.518 30.9167 22.6875C30.9167 22.857 30.9857 23.0233 31.1056 23.1432C31.2255 23.2631 31.3918 23.332 31.5613 23.332C31.7308 23.332 31.8971 23.2631 32.017 23.1432C32.1368 23.0233 32.2058 22.857 32.2058 22.6875C32.2058 22.518 32.1368 22.3517 32.017 22.2318Z" fill="#CDCDCD"/>
<path d="M1.8944 6.76307C1.77452 6.64318 1.60823 6.57422 1.43872 6.57422C1.26921 6.57422 1.10292 6.64318 0.983037 6.76307C0.863154 6.88295 0.794189 7.04924 0.794189 7.21875C0.794189 7.38826 0.863154 7.55455 0.983037 7.67443C1.10292 7.79432 1.26921 7.86328 1.43872 7.86328C1.60823 7.86328 1.77452 7.79432 1.8944 7.67443C2.01429 7.55455 2.08325 7.38826 2.08325 7.21875C2.08325 7.04924 2.01429 6.88295 1.8944 6.76307Z" fill="#CDCDCD"/>
</svg>
