<svg width="32" height="32" viewBox="0 0 32 32" fill="none" xmlns="http://www.w3.org/2000/svg">
<g clip-path="url(#clip0)">
<path d="M18.8 31.06L12.259 31.059C11.769 31.059 11.371 30.662 11.371 30.171V27.595C10.881 27.426 10.402 27.228 9.937 27.002L8.116 28.823C7.949 28.99 7.723 29.084 7.488 29.084C7.253 29.084 7.027 28.99 6.861 28.823L2.236 24.198C1.889 23.851 1.889 23.29 2.236 22.943L4.057 21.121C3.83 20.657 3.632 20.178 3.463 19.687H0.887C0.652 19.687 0.426 19.593 0.26 19.427C0.093 19.261 0 19.034 0 18.8V12.258C0 11.769 0.397 11.371 0.888 11.371H3.464C3.633 10.881 3.831 10.402 4.058 9.937L2.236 8.116C2.07 7.95 1.976 7.725 1.976 7.489C1.976 7.254 2.07 7.028 2.236 6.861L6.862 2.236C7.028 2.069 7.254 1.976 7.489 1.976C7.724 1.976 7.95 2.069 8.117 2.236L9.938 4.057C10.402 3.83 10.881 3.632 11.372 3.464V0.888C11.372 0.398 11.769 0 12.26 0H18.8C19.29 0 19.687 0.398 19.687 0.888V3.465C20.177 3.633 20.657 3.831 21.122 4.058L22.943 2.237C23.29 1.89 23.851 1.89 24.198 2.238L28.824 6.863C28.99 7.029 29.084 7.255 29.084 7.49C29.084 7.725 28.99 7.951 28.824 8.118L27.002 9.939C27.229 10.404 27.427 10.882 27.596 11.373H30.172C30.662 11.373 31.06 11.77 31.06 12.261V18.802C31.06 19.037 30.966 19.263 30.8 19.429C30.633 19.596 30.407 19.689 30.172 19.689H27.596C27.427 20.179 27.229 20.659 27.002 21.123L28.824 22.945C29.171 23.291 29.171 23.853 28.824 24.2L24.198 28.825C24.032 28.992 23.806 29.085 23.571 29.085C23.336 29.085 23.11 28.991 22.943 28.825L21.122 27.004C20.657 27.231 20.178 27.429 19.688 27.597V30.174C19.688 30.409 19.594 30.635 19.428 30.801C19.262 30.966 19.037 31.06 18.8 31.06ZM13.146 29.284H17.913V26.944C17.913 26.548 18.176 26.199 18.557 26.09C19.358 25.862 20.132 25.541 20.858 25.138C21.205 24.946 21.637 25.006 21.917 25.285L23.571 26.939L26.941 23.569L25.287 21.915C25.008 21.635 24.946 21.203 25.139 20.856C25.542 20.131 25.863 19.357 26.092 18.555C26.2 18.174 26.549 17.911 26.945 17.911H29.286V13.144H26.945C26.549 13.144 26.201 12.881 26.092 12.5C25.863 11.697 25.542 10.924 25.139 10.199C24.947 9.852 25.008 9.42 25.287 9.14L26.941 7.486L23.571 4.116L21.917 5.77C21.637 6.05 21.205 6.11 20.858 5.918C20.132 5.516 19.358 5.195 18.556 4.965C18.175 4.857 17.912 4.509 17.912 4.112V1.772H13.145V4.112C13.145 4.509 12.882 4.856 12.502 4.965C11.698 5.195 10.924 5.516 10.2 5.918C9.856 6.113 9.423 6.054 9.143 5.773L7.489 4.118L4.119 7.489L5.773 9.143C6.053 9.422 6.114 9.855 5.921 10.202C5.518 10.927 5.197 11.7 4.968 12.503C4.86 12.884 4.511 13.147 4.115 13.147H1.775L1.774 17.914H4.115C4.511 17.914 4.859 18.177 4.968 18.558C5.197 19.361 5.518 20.135 5.921 20.86C6.113 21.206 6.053 21.637 5.773 21.918L4.119 23.57L7.489 26.941L9.144 25.286C9.423 25.007 9.855 24.946 10.203 25.139C10.927 25.541 11.701 25.862 12.504 26.091C12.885 26.2 13.147 26.548 13.147 26.945V29.284H13.146Z" fill="#CDCDCD"/>
<path d="M15.5299 22.273C11.8109 22.273 8.78589 19.248 8.78589 15.529C8.78589 11.81 11.8109 8.78503 15.5299 8.78503C19.2489 8.78503 22.2739 11.81 22.2739 15.529C22.2739 19.248 19.2489 22.273 15.5299 22.273ZM15.5299 10.561C12.7899 10.561 10.5609 12.79 10.5609 15.53C10.5609 18.271 12.7899 20.5 15.5299 20.5C18.2699 20.5 20.4999 18.271 20.4999 15.53C20.4999 12.79 18.2699 10.561 15.5299 10.561Z" fill="#CDCDCD"/>
</g>
<defs>
<clipPath id="clip0">
<rect width="31.06" height="31.06" fill="white"/>
</clipPath>
</defs>
</svg>
