<svg width="51" height="33" viewBox="0 0 51 33" fill="none" xmlns="http://www.w3.org/2000/svg">
<path d="M34.2866 18.5905L29.9455 16.6395C29.6388 16.5017 29.4408 16.1934 29.4408 15.8542V14.6487C30.899 13.4738 31.8364 11.6645 31.8364 9.63696V7.94009C32.3168 7.67166 32.6348 7.15294 32.6348 6.57197V6.40729C32.6348 2.87433 29.7923 0 26.2984 0H24.7014C21.2075 0 18.365 2.87433 18.365 6.40729V7.90151C18.365 8.41218 18.5823 8.87479 18.9612 9.17082C19.0254 9.22098 19.093 9.2651 19.1635 9.30327V9.63686C19.1635 11.6644 20.1007 13.4737 21.5589 14.6485V15.8541C21.5589 16.1933 21.3607 16.5016 21.0542 16.6394L16.713 18.5904C15.2913 19.2293 14.3726 20.6588 14.3726 22.232V32.2442C14.3726 32.6614 14.707 32.9996 15.1196 32.9996C15.5322 32.9996 15.8667 32.6614 15.8667 32.2442V22.2321C15.8667 22.1445 15.8729 22.058 15.8818 21.9722L17.8822 23.9949C18.1935 24.3098 18.365 24.7283 18.365 25.1736V32.2443C18.365 32.6615 18.6995 32.9997 19.1121 32.9997C19.5246 32.9997 19.8591 32.6615 19.8591 32.2443V25.1736C19.8591 24.3248 19.5323 23.5269 18.9387 22.9266L16.554 20.5151C16.7689 20.2897 17.0266 20.1029 17.3199 19.971L21.5879 18.053L24.7529 21.2534V32.2442C24.7529 32.6614 25.0874 32.9996 25.5 32.9996C25.9126 32.9996 26.2471 32.6614 26.2471 32.2442V21.2535L29.4122 18.0531L33.68 19.971C33.9733 20.1029 34.2311 20.2897 34.4459 20.5152L32.0612 22.9266C31.4676 23.5269 31.1408 24.3248 31.1408 25.1736V32.2443C31.1408 32.6615 31.4753 32.9997 31.8879 32.9997C32.3004 32.9997 32.6349 32.6615 32.6349 32.2443V25.1736C32.6349 24.7284 32.8064 24.3098 33.1177 23.9949L35.118 21.9723C35.127 22.0581 35.1331 22.1444 35.1331 22.232V32.2442C35.1331 32.6614 35.4676 32.9996 35.8802 32.9996C36.2928 32.9996 36.6273 32.6614 36.6273 32.2442V22.2321C36.627 20.6589 35.7084 19.2294 34.2866 18.5905ZM25.4997 19.8723L22.7225 17.064C22.9337 16.7047 23.0529 16.289 23.0529 15.8542V15.5468C23.8063 15.8669 24.6329 16.0443 25.4998 16.0443C26.3667 16.0443 27.1933 15.867 27.9465 15.5469V15.8542C27.9465 16.2891 28.0657 16.7047 28.277 17.0641L25.4997 19.8723ZM25.4998 14.5333C22.8298 14.5334 20.6575 12.3368 20.6575 9.63696V9.29723C21.1237 9.11039 21.5787 8.81305 22.0143 8.40664C22.3174 8.1237 22.3364 7.64577 22.0565 7.33917C21.7767 7.03267 21.3042 7.01344 21.0009 7.29637C20.6272 7.64517 20.2539 7.87049 19.8915 7.96617C19.8827 7.96849 19.8763 7.9695 19.8717 7.9699C19.8663 7.95933 19.859 7.93717 19.859 7.90161V6.40739C19.859 3.70751 22.0313 1.51094 24.7013 1.51094H26.2983C28.9684 1.51094 31.1406 3.70751 31.1406 6.40739V6.57207C31.1406 6.59654 31.126 6.6178 31.1069 6.62162C26.6334 7.51504 24.3896 5.83125 23.6325 5.06576C23.3408 4.77074 22.8677 4.77074 22.5761 5.06576C22.2843 5.36077 22.2843 5.83911 22.5761 6.13402C24.896 8.47986 28.2812 8.52216 30.3421 8.27177V9.63686C30.3421 12.3367 28.1698 14.5333 25.4998 14.5333Z" fill="#CDCDCD"/>
<path d="M34.2866 18.5905L29.9455 16.6395C29.6388 16.5017 29.4408 16.1934 29.4408 15.8542V14.6487C30.899 13.4738 31.8364 11.6645 31.8364 9.63696V7.94009C32.3168 7.67166 32.6348 7.15294 32.6348 6.57197V6.40729C32.6348 2.87433 29.7923 0 26.2984 0H24.7014C21.2075 0 18.365 2.87433 18.365 6.40729V7.90151C18.365 8.41218 18.5823 8.87479 18.9612 9.17082C19.0254 9.22098 19.093 9.2651 19.1635 9.30327V9.63686C19.1635 11.6644 20.1007 13.4737 21.5589 14.6485V15.8541C21.5589 16.1933 21.3607 16.5016 21.0542 16.6394L16.713 18.5904C15.2913 19.2293 14.3726 20.6588 14.3726 22.232V32.2442C14.3726 32.6614 14.707 32.9996 15.1196 32.9996C15.5322 32.9996 15.8667 32.6614 15.8667 32.2442V22.2321C15.8667 22.1445 15.8729 22.058 15.8818 21.9722L17.8822 23.9949C18.1935 24.3098 18.365 24.7283 18.365 25.1736V32.2443C18.365 32.6615 18.6995 32.9997 19.1121 32.9997C19.5246 32.9997 19.8591 32.6615 19.8591 32.2443V25.1736C19.8591 24.3248 19.5323 23.5269 18.9387 22.9266L16.554 20.5151C16.7689 20.2897 17.0266 20.1029 17.3199 19.971L21.5879 18.053L24.7529 21.2534V32.2442C24.7529 32.6614 25.0874 32.9996 25.5 32.9996C25.9126 32.9996 26.2471 32.6614 26.2471 32.2442V21.2535L29.4122 18.0531L33.68 19.971C33.9733 20.1029 34.2311 20.2897 34.4459 20.5152L32.0612 22.9266C31.4676 23.5269 31.1408 24.3248 31.1408 25.1736V32.2443C31.1408 32.6615 31.4753 32.9997 31.8879 32.9997C32.3004 32.9997 32.6349 32.6615 32.6349 32.2443V25.1736C32.6349 24.7284 32.8064 24.3098 33.1177 23.9949L35.118 21.9723C35.127 22.0581 35.1331 22.1444 35.1331 22.232V32.2442C35.1331 32.6614 35.4676 32.9996 35.8802 32.9996C36.2928 32.9996 36.6273 32.6614 36.6273 32.2442V22.2321C36.627 20.6589 35.7084 19.2294 34.2866 18.5905ZM25.4997 19.8723L22.7225 17.064C22.9337 16.7047 23.0529 16.289 23.0529 15.8542V15.5468C23.8063 15.8669 24.6329 16.0443 25.4998 16.0443C26.3667 16.0443 27.1933 15.867 27.9465 15.5469V15.8542C27.9465 16.2891 28.0657 16.7047 28.277 17.0641L25.4997 19.8723ZM25.4998 14.5333C22.8298 14.5334 20.6575 12.3368 20.6575 9.63696V9.29723C21.1237 9.11039 21.5787 8.81305 22.0143 8.40664C22.3174 8.1237 22.3364 7.64577 22.0565 7.33917C21.7767 7.03267 21.3042 7.01344 21.0009 7.29637C20.6272 7.64517 20.2539 7.87049 19.8915 7.96617C19.8827 7.96849 19.8763 7.9695 19.8717 7.9699C19.8663 7.95933 19.859 7.93717 19.859 7.90161V6.40739C19.859 3.70751 22.0313 1.51094 24.7013 1.51094H26.2983C28.9684 1.51094 31.1406 3.70751 31.1406 6.40739V6.57207C31.1406 6.59654 31.126 6.6178 31.1069 6.62162C26.6334 7.51504 24.3896 5.83125 23.6325 5.06576C23.3408 4.77074 22.8677 4.77074 22.5761 5.06576C22.2843 5.36077 22.2843 5.83911 22.5761 6.13402C24.896 8.47986 28.2812 8.52216 30.3421 8.27177V9.63686C30.3421 12.3367 28.1698 14.5333 25.4998 14.5333Z" stroke="#CDCDCD"/>
<path d="M13.4714 14.4817V12.8666C13.4714 10.8958 12.4585 9.16098 10.9324 8.16262C11.0267 7.85692 11.0759 7.53673 11.0759 7.21472C11.0759 5.46254 9.66619 4.03711 7.93338 4.03711C6.20058 4.03711 4.79091 5.46264 4.79091 7.21472C4.79091 7.54076 4.83972 7.85783 4.93415 8.16282C3.40813 9.16108 2.3954 10.8959 2.3954 12.8666V14.4814C2.3954 16.3898 3.34498 18.0773 4.79081 19.0887V20.75C4.79081 21.0776 4.61082 21.3721 4.32105 21.5187L1.73709 22.8251C0.665589 23.3669 0 24.456 0 25.6674V32.2445C0 32.6616 0.334488 32.9999 0.74707 32.9999C1.15965 32.9999 1.49414 32.6616 1.49414 32.2445V25.9941L2.71117 27.2247C3.02245 27.5396 3.19397 27.9581 3.19397 28.4034V32.2445C3.19397 32.6616 3.52846 32.9999 3.94104 32.9999C4.35362 32.9999 4.68811 32.6616 4.68811 32.2445V28.4034C4.68811 27.5546 4.36119 26.7567 3.76772 26.1565L2.07387 24.4437C2.06871 24.4385 2.06332 24.4337 2.05793 24.4289C2.05479 24.4261 2.05165 24.4234 2.04857 24.4205C2.15485 24.3256 2.27408 24.243 2.40537 24.1765L4.98933 22.8702C5.12171 22.8032 5.24493 22.7241 5.35978 22.6363L7.18631 24.4834V32.2446C7.18631 32.6617 7.5208 33 7.93338 33C8.34597 33 8.68045 32.6617 8.68045 32.2446V24.4833L10.5071 22.6362C10.622 22.7241 10.7452 22.8032 10.8775 22.8701L11.59 23.2304C11.6973 23.2847 11.8113 23.3103 11.9236 23.3103C12.1977 23.3103 12.4615 23.1572 12.5924 22.8926C12.777 22.5195 12.6274 22.0657 12.2583 21.8792L11.5458 21.5189C11.256 21.3723 11.076 21.0778 11.076 20.7503V19.089C12.5218 18.0776 13.4714 16.39 13.4714 14.4817ZM7.93338 5.54795C8.84232 5.54795 9.58172 6.29572 9.58172 7.21472C9.58172 7.31594 9.57275 7.41515 9.55562 7.51235C9.04223 7.35301 8.49767 7.26669 7.93338 7.26669C7.36989 7.26669 6.82603 7.35271 6.31344 7.51165C6.29621 7.41445 6.28505 7.31574 6.28505 7.21472C6.28505 6.29562 7.02445 5.54795 7.93338 5.54795ZM7.93338 8.77763C10.1631 8.77763 11.9772 10.612 11.9772 12.8667V13.1404C8.86692 14.1034 7.01329 11.7109 6.9341 11.606C6.80411 11.4309 6.60539 11.3213 6.38944 11.3058C6.17349 11.2905 5.96132 11.3703 5.80822 11.5252C5.09512 12.2462 4.39666 12.594 3.89223 12.7619C3.94752 10.5555 5.73839 8.77763 7.93338 8.77763ZM7.93338 23.1019L6.20705 21.3563C6.25746 21.1615 6.28505 20.9585 6.28505 20.7501V19.8279C6.80591 19.9925 7.35963 20.0813 7.93338 20.0813C8.50713 20.0813 9.06086 19.9925 9.58172 19.8279V20.7501C9.58172 20.9585 9.60931 21.1616 9.65971 21.3563L7.93338 23.1019ZM7.93338 18.5704C5.70363 18.5704 3.88954 16.736 3.88954 14.4814V14.3248C4.48531 14.1865 5.36864 13.8648 6.29013 13.1155C6.61615 13.4265 7.08212 13.808 7.6755 14.1353C8.37734 14.5224 9.34664 14.8804 10.5306 14.8804C10.9805 14.8804 11.4619 14.8276 11.9708 14.7061C11.855 16.8567 10.0885 18.5704 7.93338 18.5704Z" fill="#CDCDCD"/>
<path d="M13.4714 14.4817V12.8666C13.4714 10.8958 12.4585 9.16098 10.9324 8.16262C11.0267 7.85692 11.0759 7.53673 11.0759 7.21472C11.0759 5.46254 9.66619 4.03711 7.93338 4.03711C6.20058 4.03711 4.79091 5.46264 4.79091 7.21472C4.79091 7.54076 4.83972 7.85783 4.93415 8.16282C3.40813 9.16108 2.3954 10.8959 2.3954 12.8666V14.4814C2.3954 16.3898 3.34498 18.0773 4.79081 19.0887V20.75C4.79081 21.0776 4.61082 21.3721 4.32105 21.5187L1.73709 22.8251C0.665589 23.3669 0 24.456 0 25.6674V32.2445C0 32.6616 0.334488 32.9999 0.74707 32.9999C1.15965 32.9999 1.49414 32.6616 1.49414 32.2445V25.9941L2.71117 27.2247C3.02245 27.5396 3.19397 27.9581 3.19397 28.4034V32.2445C3.19397 32.6616 3.52846 32.9999 3.94104 32.9999C4.35362 32.9999 4.68811 32.6616 4.68811 32.2445V28.4034C4.68811 27.5546 4.36119 26.7567 3.76772 26.1565L2.07387 24.4437C2.06871 24.4385 2.06332 24.4337 2.05793 24.4289C2.05479 24.4261 2.05165 24.4234 2.04857 24.4205C2.15485 24.3256 2.27408 24.243 2.40537 24.1765L4.98933 22.8702C5.12171 22.8032 5.24493 22.7241 5.35978 22.6363L7.18631 24.4834V32.2446C7.18631 32.6617 7.5208 33 7.93338 33C8.34597 33 8.68045 32.6617 8.68045 32.2446V24.4833L10.5071 22.6362C10.622 22.7241 10.7452 22.8032 10.8775 22.8701L11.59 23.2304C11.6973 23.2847 11.8113 23.3103 11.9236 23.3103C12.1977 23.3103 12.4615 23.1572 12.5924 22.8926C12.777 22.5195 12.6274 22.0657 12.2583 21.8792L11.5458 21.5189C11.256 21.3723 11.076 21.0778 11.076 20.7503V19.089C12.5218 18.0776 13.4714 16.39 13.4714 14.4817ZM7.93338 5.54795C8.84232 5.54795 9.58172 6.29572 9.58172 7.21472C9.58172 7.31594 9.57275 7.41515 9.55562 7.51235C9.04223 7.35301 8.49767 7.26669 7.93338 7.26669C7.36989 7.26669 6.82603 7.35271 6.31344 7.51165C6.29621 7.41445 6.28505 7.31574 6.28505 7.21472C6.28505 6.29562 7.02445 5.54795 7.93338 5.54795ZM7.93338 8.77763C10.1631 8.77763 11.9772 10.612 11.9772 12.8667V13.1404C8.86692 14.1034 7.01329 11.7109 6.9341 11.606C6.80411 11.4309 6.60539 11.3213 6.38944 11.3058C6.17349 11.2905 5.96132 11.3703 5.80822 11.5252C5.09512 12.2462 4.39666 12.594 3.89223 12.7619C3.94752 10.5555 5.73839 8.77763 7.93338 8.77763ZM7.93338 23.1019L6.20705 21.3563C6.25746 21.1615 6.28505 20.9585 6.28505 20.7501V19.8279C6.80591 19.9925 7.35963 20.0813 7.93338 20.0813C8.50713 20.0813 9.06086 19.9925 9.58172 19.8279V20.7501C9.58172 20.9585 9.60931 21.1616 9.65971 21.3563L7.93338 23.1019ZM7.93338 18.5704C5.70363 18.5704 3.88954 16.736 3.88954 14.4814V14.3248C4.48531 14.1865 5.36864 13.8648 6.29013 13.1155C6.61615 13.4265 7.08212 13.808 7.6755 14.1353C8.37734 14.5224 9.34664 14.8804 10.5306 14.8804C10.9805 14.8804 11.4619 14.8276 11.9708 14.7061C11.855 16.8567 10.0885 18.5704 7.93338 18.5704Z" stroke="#CDCDCD"/>
<path d="M49.2636 21.2103L45.0827 19.0965C44.7929 18.9499 44.6129 18.6554 44.6129 18.3279V17.2573C45.5916 16.3787 46.2099 15.0983 46.2099 13.6741V12.8142C46.2185 12.8142 46.227 12.8143 46.2356 12.8144C46.2441 12.8146 46.2526 12.8147 46.2613 12.8147C46.6738 12.8147 47.0083 12.4765 47.0083 12.0593V10.4445C47.0083 7.80191 44.8822 5.65198 42.2688 5.65198H40.6719C38.0585 5.65198 35.9324 7.80191 35.9324 10.4445V12.0593C35.9324 12.4765 36.2669 12.8147 36.6794 12.8147C36.6856 12.8147 36.7035 12.8145 36.7308 12.8134V13.6741C36.7308 15.0984 37.3492 16.3788 38.3279 17.2574V18.328C38.3279 18.6556 38.1479 18.9501 37.858 19.0966C37.489 19.2831 37.3394 19.7369 37.5239 20.11C37.6548 20.3747 37.9187 20.5278 38.1927 20.5278C38.305 20.5278 38.4189 20.5022 38.5262 20.448C38.6586 20.381 38.7818 20.3019 38.8966 20.2141L40.7233 22.0611V32.2445C40.7233 32.6617 41.0578 33 41.4704 33C41.8829 33 42.2174 32.6617 42.2174 32.2445V22.0609L44.044 20.2139C44.1589 20.3018 44.282 20.3809 44.4144 20.4478L48.46 22.4932L47.2329 23.7341C46.6395 24.3343 46.3126 25.1322 46.3126 25.981V32.2443C46.3126 32.6615 46.647 32.9998 47.0596 32.9998C47.4722 32.9998 47.8067 32.6615 47.8067 32.2443V25.981C47.8067 25.5358 47.9781 25.1172 48.2895 24.8023L49.4518 23.627C49.4871 23.7637 49.5064 23.9062 49.5064 24.0524V32.2443C49.5064 32.6615 49.8409 32.9998 50.2535 32.9998C50.6661 32.9998 51.0006 32.6615 51.0006 32.2443V24.0524C51.0007 22.8411 50.3351 21.7521 49.2636 21.2103ZM37.4264 11.1484V10.4444H37.4265C37.4265 8.63489 38.8824 7.16272 40.6719 7.16272H42.2688C44.0583 7.16272 45.5142 8.63489 45.5142 10.4444V11.2835C42.2666 11.1063 40.3068 9.82845 40.2878 9.81586C40.1614 9.73065 40.0171 9.68895 39.8736 9.68895C39.6808 9.68895 39.4895 9.76429 39.3451 9.91024C38.6303 10.633 37.9299 10.9809 37.4264 11.1484ZM41.4704 20.6797L39.744 18.9341C39.7944 18.7393 39.822 18.5362 39.822 18.3279V18.167C40.3356 18.3603 40.8909 18.4664 41.4704 18.4664C42.0498 18.4664 42.6051 18.3603 43.1187 18.167V18.3279C43.1187 18.5362 43.1462 18.7393 43.1967 18.9341L41.4704 20.6797ZM41.4704 16.9557C39.6809 16.9557 38.225 15.4836 38.225 13.6741V12.4562C38.7482 12.2448 39.3578 11.9087 39.9782 11.3742C40.7627 11.787 42.4041 12.5004 44.7157 12.7361V13.6741C44.7157 15.4835 43.2598 16.9557 41.4704 16.9557Z" fill="#CDCDCD"/>
<path d="M49.2636 21.2103L45.0827 19.0965C44.7929 18.9499 44.6129 18.6554 44.6129 18.3279V17.2573C45.5916 16.3787 46.2099 15.0983 46.2099 13.6741V12.8142C46.2185 12.8142 46.227 12.8143 46.2356 12.8144C46.2441 12.8146 46.2526 12.8147 46.2613 12.8147C46.6738 12.8147 47.0083 12.4765 47.0083 12.0593V10.4445C47.0083 7.80191 44.8822 5.65198 42.2688 5.65198H40.6719C38.0585 5.65198 35.9324 7.80191 35.9324 10.4445V12.0593C35.9324 12.4765 36.2669 12.8147 36.6794 12.8147C36.6856 12.8147 36.7035 12.8145 36.7308 12.8134V13.6741C36.7308 15.0984 37.3492 16.3788 38.3279 17.2574V18.328C38.3279 18.6556 38.1479 18.9501 37.858 19.0966C37.489 19.2831 37.3394 19.7369 37.5239 20.11C37.6548 20.3747 37.9187 20.5278 38.1927 20.5278C38.305 20.5278 38.4189 20.5022 38.5262 20.448C38.6586 20.381 38.7818 20.3019 38.8966 20.2141L40.7233 22.0611V32.2445C40.7233 32.6617 41.0578 33 41.4704 33C41.8829 33 42.2174 32.6617 42.2174 32.2445V22.0609L44.044 20.2139C44.1589 20.3018 44.282 20.3809 44.4144 20.4478L48.46 22.4932L47.2329 23.7341C46.6395 24.3343 46.3126 25.1322 46.3126 25.981V32.2443C46.3126 32.6615 46.647 32.9998 47.0596 32.9998C47.4722 32.9998 47.8067 32.6615 47.8067 32.2443V25.981C47.8067 25.5358 47.9781 25.1172 48.2895 24.8023L49.4518 23.627C49.4871 23.7637 49.5064 23.9062 49.5064 24.0524V32.2443C49.5064 32.6615 49.8409 32.9998 50.2535 32.9998C50.6661 32.9998 51.0006 32.6615 51.0006 32.2443V24.0524C51.0007 22.8411 50.3351 21.7521 49.2636 21.2103ZM37.4264 11.1484V10.4444H37.4265C37.4265 8.63489 38.8824 7.16272 40.6719 7.16272H42.2688C44.0583 7.16272 45.5142 8.63489 45.5142 10.4444V11.2835C42.2666 11.1063 40.3068 9.82845 40.2878 9.81586C40.1614 9.73065 40.0171 9.68895 39.8736 9.68895C39.6808 9.68895 39.4895 9.76429 39.3451 9.91024C38.6303 10.633 37.9299 10.9809 37.4264 11.1484ZM41.4704 20.6797L39.744 18.9341C39.7944 18.7393 39.822 18.5362 39.822 18.3279V18.167C40.3356 18.3603 40.8909 18.4664 41.4704 18.4664C42.0498 18.4664 42.6051 18.3603 43.1187 18.167V18.3279C43.1187 18.5362 43.1462 18.7393 43.1967 18.9341L41.4704 20.6797ZM41.4704 16.9557C39.6809 16.9557 38.225 15.4836 38.225 13.6741V12.4562C38.7482 12.2448 39.3578 11.9087 39.9782 11.3742C40.7627 11.787 42.4041 12.5004 44.7157 12.7361V13.6741C44.7157 15.4835 43.2598 16.9557 41.4704 16.9557Z" stroke="#CDCDCD"/>
</svg>
