<svg width="33" height="33" viewBox="0 0 33 33" fill="none" xmlns="http://www.w3.org/2000/svg">
<path d="M16.4997 0C7.40182 0 0 7.4019 0 16.5C0 25.598 7.40182 33 16.4997 33C25.5982 33 33 25.598 33 16.5C33 7.4019 25.5982 0 16.4997 0ZM16.4997 30.836C8.59543 30.836 2.16398 24.4048 2.16398 16.5C2.16398 8.5951 8.59543 2.16406 16.4997 2.16406C24.4045 2.16406 30.8359 8.59518 30.8359 16.5C30.8359 24.4048 24.4045 30.836 16.4997 30.836Z" fill="#E3E8F1"/>
<path d="M16.4989 7.53906C13.5969 7.53906 11.2363 9.89988 11.2363 12.802C11.2363 13.3995 11.7207 13.884 12.3182 13.884C12.9159 13.884 13.4003 13.3995 13.4003 12.802C13.4003 11.0934 14.7903 9.70312 16.4989 9.70312C18.2082 9.70312 19.5981 11.0934 19.5981 12.802C19.5981 14.5109 18.2081 15.9012 16.4989 15.9012C15.9015 15.9012 15.4171 16.3857 15.4171 16.9831V20.752C15.4171 21.3496 15.9015 21.834 16.4989 21.834C17.0964 21.834 17.5811 21.3496 17.5811 20.752V17.9521C19.9657 17.4518 21.7622 15.3331 21.7622 12.8019C21.7622 9.89988 19.4013 7.53906 16.4989 7.53906Z" fill="#E3E8F1"/>
<path d="M16.5009 22.5835C15.7513 22.5835 15.1426 23.1916 15.1426 23.9416C15.1426 24.6916 15.7513 25.3 16.5009 25.3C17.2512 25.3 17.8586 24.6916 17.8586 23.9416C17.8586 23.1916 17.2512 22.5835 16.5009 22.5835Z" fill="#E3E8F1"/>
</svg>
