<svg width="33" height="33" viewBox="0 0 33 33" fill="none" xmlns="http://www.w3.org/2000/svg">
<path d="M25.4374 0H2.06249C0.923416 0 0 0.923419 0 2.0625V18.5625C0 19.7016 0.923416 20.625 2.06249 20.625H11V19.25H2.06249C1.6828 19.25 1.37497 18.9422 1.37497 18.5625V2.0625C1.37497 1.68281 1.6828 1.37498 2.06249 1.37498H25.4374C25.8171 1.37498 26.1249 1.68281 26.1249 2.0625V14.4375H27.4999V2.0625C27.4999 0.923419 26.5765 0 25.4374 0Z" fill="#CDCDCD"/>
<path d="M9.62497 19.9374H8.25V24.0624H9.62497V19.9374Z" fill="#CDCDCD"/>
<path d="M4.812 16.5C4.43231 16.5 4.12448 16.1922 4.12448 15.8125V14.4375H2.74951V15.8125C2.74951 16.9516 3.67293 17.875 4.812 17.875H6.18697V16.5H4.812Z" fill="#CDCDCD"/>
<path d="M4.12448 11.6874H2.74951V13.0624H4.12448V11.6874Z" fill="#CDCDCD"/>
<path d="M25.1263 14.5626C23.7253 13.1614 21.825 12.3742 19.8436 12.3743C15.7183 12.3745 12.3741 15.7189 12.3743 19.8443C12.3745 23.9696 15.7189 27.3138 19.8442 27.3137C21.825 27.3136 23.7245 26.5268 25.1253 25.1263C28.0426 22.2095 28.0431 17.48 25.1263 14.5626ZM19.8401 25.9393C16.4741 25.9382 13.7463 23.2086 13.7475 19.8426C13.7487 16.4766 16.4782 13.7488 19.8442 13.75C21.4621 13.7456 23.0143 14.3893 24.1541 15.5374C25.2961 16.6807 25.9373 18.2307 25.9368 19.8467C25.9357 23.2127 23.2061 25.9405 19.8401 25.9393Z" fill="#CDCDCD"/>
<path d="M32.799 29.9063L28.4836 25.5923C28.3547 25.4634 28.1798 25.3909 27.9975 25.3909C27.8152 25.3909 27.6404 25.4634 27.5115 25.5923L25.5934 27.5104C25.325 27.7789 25.325 28.214 25.5934 28.4826L29.9088 32.7987C30.0377 32.9276 30.2126 33.0001 30.3949 33.0001C30.5774 32.9995 30.7524 32.9263 30.8809 32.7966L32.799 30.8785C33.0674 30.61 33.0674 30.1748 32.799 29.9063ZM30.3948 31.3405L27.0515 27.9965L27.9975 27.0505L31.3408 30.3945L30.3948 31.3405Z" fill="#CDCDCD"/>
<path d="M25.1251 24.1535L24.1528 25.1257L26.5504 27.5233L27.5227 26.5511L25.1251 24.1535Z" fill="#CDCDCD"/>
<path d="M19.938 15.1251V16.5001C21.8355 16.5024 23.3732 18.0401 23.3754 19.9376H24.7504C24.7475 17.281 22.5946 15.1282 19.938 15.1251Z" fill="#CDCDCD"/>
<path d="M12.3759 23.3751H6.87598V24.7501H12.3759V23.3751Z" fill="#CDCDCD"/>
<path d="M10.3125 2.75012C9.17342 2.75012 8.25 3.67354 8.25 4.81262C8.25 5.9517 9.17342 6.87512 10.3125 6.87512C11.4516 6.87512 12.375 5.9517 12.375 4.81262C12.375 3.67354 11.4516 2.75012 10.3125 2.75012ZM10.3125 5.50008C9.9328 5.50008 9.62497 5.19225 9.62497 4.81256C9.62497 4.43286 9.9328 4.12504 10.3125 4.12504C10.6922 4.12504 11 4.43286 11 4.81256C11 5.19231 10.6922 5.50008 10.3125 5.50008Z" fill="#CDCDCD"/>
<path d="M15.126 7.56238C13.9869 7.56238 13.0635 8.4858 13.0635 9.62488C13.0635 10.764 13.9869 11.6874 15.126 11.6874C16.265 11.6874 17.1885 10.764 17.1885 9.62488C17.1885 8.4858 16.265 7.56238 15.126 7.56238ZM15.126 10.3124C14.7463 10.3124 14.4384 10.0046 14.4384 9.62488C14.4384 9.24518 14.7463 8.93736 15.126 8.93736C15.5057 8.93736 15.8135 9.24518 15.8135 9.62488C15.8134 10.0046 15.5057 10.3124 15.126 10.3124Z" fill="#CDCDCD"/>
<path d="M9.1381 5.01398L5.70068 8.45142L6.67293 9.42366L10.1103 5.98623L9.1381 5.01398Z" fill="#CDCDCD"/>
<path d="M11.4827 5.01579L10.5105 5.98804L13.9479 9.42547L14.9202 8.45322L11.4827 5.01579Z" fill="#CDCDCD"/>
<path d="M19.938 2.75012C18.7989 2.75012 17.8755 3.67354 17.8755 4.81262C17.8755 5.9517 18.7989 6.87512 19.938 6.87512C21.0771 6.87512 22.0005 5.9517 22.0005 4.81262C22.0005 3.67354 21.0771 2.75012 19.938 2.75012ZM19.938 5.50008C19.5583 5.50008 19.2505 5.19225 19.2505 4.81256C19.2505 4.43286 19.5583 4.12504 19.938 4.12504C20.3177 4.12504 20.6255 4.43286 20.6255 4.81256C20.6255 5.19231 20.3177 5.50008 19.938 5.50008Z" fill="#CDCDCD"/>
<path d="M18.7626 5.01643L15.3252 8.45386L16.2974 9.4261L19.7349 5.98867L18.7626 5.01643Z" fill="#CDCDCD"/>
</svg>
